<svg width="17" height="16" viewBox="0 0 17 16" fill="none" xmlns="http://www.w3.org/2000/svg">
<path d="M8.00834 0C3.59006 0 0 3.58172 0 8C0 12.4183 3.59006 16 8.00834 16C12.4266 16 16.0167 12.4183 16.0167 8C16.0167 3.58172 12.4266 0 8.00834 0ZM7.51805 3.32886C7.51805 3.05807 7.73756 2.83855 8.00835 2.83855C8.27914 2.83855 8.49866 3.05807 8.49866 3.32886V8.32277C8.49866 8.59356 8.27914 8.81308 8.00835 8.81308C7.73756 8.81308 7.51805 8.59356 7.51805 8.32277V3.32886ZM8.00834 13.6518C5.34009 13.6518 3.16933 11.481 3.16933 8.81311C3.16933 7.68492 3.55268 6.61598 4.25772 5.75467C4.42922 5.54517 4.74184 5.54662 4.93329 5.73806C5.12474 5.92951 5.12181 6.23821 4.95574 6.45205C4.4332 7.12491 4.14995 7.94732 4.14995 8.81311C4.14995 10.9404 5.88072 12.6712 8.00834 12.6712C10.136 12.6712 11.8667 10.9404 11.8667 8.81311C11.8667 7.94732 11.5835 7.12491 11.0609 6.45204C10.8949 6.23821 10.8919 5.92951 11.0834 5.73807C11.2748 5.54662 11.5875 5.54518 11.7589 5.75468C12.464 6.61599 12.8473 7.68493 12.8473 8.81311C12.8473 11.481 10.6766 13.6518 8.00834 13.6518Z" fill="#FF5252"/>
</svg>
